<svg id="SvgjsSvg1021" width="288" height="288" xmlns="http://www.w3.org/2000/svg" version="1.1" xmlns:xlink="http://www.w3.org/1999/xlink" xmlns:svgjs="http://svgjs.com/svgjs"><defs id="SvgjsDefs1022"></defs><g id="SvgjsG1023" transform="matrix(0.9167,0,0,0.9167,11.993559383010876,11.995200635528562)"><svg xmlns="http://www.w3.org/2000/svg" enable-background="new 0 0 100 100" viewBox="0 0 100 100" width="288" height="288"><path d="M92,26.5h-7v-2c0-3.86-3.14-7-7-7s-7,3.14-7,7v2h-8v-2c0-3.86-3.14-7-7-7s-7,3.14-7,7v2h-8v-2c0-3.86-3.14-7-7-7	s-7,3.14-7,7v2h-7c-0.04,0-0.07,0.01-0.11,0.01c-0.08,0-0.15,0.01-0.23,0.02c-0.06,0.01-0.11,0.02-0.17,0.04
	c-0.07,0.02-0.13,0.04-0.2,0.06c-0.06,0.02-0.11,0.05-0.17,0.07c-0.06,0.03-0.12,0.06-0.18,0.1c-0.05,0.03-0.1,0.07-0.15,0.1
	c-0.05,0.04-0.11,0.08-0.16,0.13c-0.04,0.04-0.09,0.09-0.13,0.13c-0.04,0.05-0.09,0.1-0.13,0.15c-0.04,0.05-0.07,0.11-0.1,0.16
	c-0.03,0.05-0.06,0.11-0.09,0.17c-0.03,0.07-0.06,0.13-0.08,0.2c-0.01,0.04-0.03,0.07-0.04,0.11l-12,43
	c-0.17,0.6-0.04,1.25,0.33,1.75C6.79,73.21,7.37,73.5,8,73.5h10v7c0,1.1,0.9,2,2,2h72c1.1,0,2-0.9,2-2v-52
	C94,27.4,93.1,26.5,92,26.5z M75,24.5c0-1.65,1.35-3,3-3s3,1.35,3,3v2h-6V24.5z M53,24.5c0-1.65,1.35-3,3-3s3,1.35,3,3v2h-6V24.5z
	 M31,24.5c0-1.65,1.35-3,3-3s3,1.35,3,3v2h-6V24.5z M10.63,69.5L18,43.11V69.5H10.63z M90,78.5H22v-48h15v4c0,1.1,0.9,2,2,2
	s2-0.9,2-2v-4h18v4c0,1.1,0.9,2,2,2s2-0.9,2-2v-4h18v4c0,1.1,0.9,2,2,2s2-0.9,2-2v-4h5V78.5z M45.96,47.11
	C45.99,47.24,46,47.37,46,47.5c0,0.13-0.01,0.26-0.04,0.39c-0.02,0.13-0.06,0.25-0.11,0.38c-0.05,0.12-0.12,0.23-0.19,0.34
	c-0.07,0.11-0.15,0.21-0.25,0.3c-0.09,0.1-0.19,0.18-0.3,0.25c-0.11,0.08-0.22,0.14-0.35,0.19c-0.12,0.05-0.24,0.09-0.37,0.11
	c-0.13,0.03-0.26,0.04-0.39,0.04c-0.13,0-0.26-0.01-0.39-0.04c-0.13-0.02-0.26-0.06-0.38-0.11c-0.12-0.05-0.23-0.11-0.34-0.19
	c-0.11-0.07-0.21-0.15-0.3-0.25c-0.1-0.09-0.18-0.19-0.25-0.3s-0.14-0.22-0.19-0.34c-0.05-0.13-0.09-0.25-0.11-0.38
	C42.01,47.76,42,47.63,42,47.5c0-0.13,0.01-0.26,0.04-0.39c0.02-0.13,0.06-0.25,0.11-0.37c0.05-0.13,0.12-0.24,0.19-0.35
	c0.07-0.11,0.15-0.21,0.25-0.3c0.09-0.1,0.19-0.18,0.3-0.25c0.11-0.07,0.22-0.14,0.34-0.19c0.13-0.05,0.25-0.08,0.38-0.11
	c0.64-0.13,1.34,0.08,1.8,0.55c0.1,0.09,0.18,0.19,0.25,0.3c0.07,0.11,0.14,0.22,0.19,0.35C45.9,46.86,45.94,46.98,45.96,47.11z
	 M57.96,47.11C57.99,47.24,58,47.37,58,47.5c0,0.53-0.21,1.04-0.59,1.41c-0.09,0.1-0.19,0.18-0.3,0.25
	c-0.11,0.07-0.22,0.14-0.35,0.19c-0.12,0.05-0.24,0.09-0.37,0.11c-0.13,0.03-0.26,0.04-0.39,0.04c-0.53,0-1.04-0.21-1.41-0.59
	C54.21,48.54,54,48.03,54,47.5c0-0.13,0.01-0.26,0.04-0.39c0.02-0.13,0.06-0.25,0.11-0.38c0.05-0.12,0.12-0.23,0.19-0.34
	c0.07-0.11,0.15-0.21,0.25-0.3c0.09-0.1,0.19-0.18,0.3-0.25c0.11-0.07,0.22-0.14,0.34-0.19c0.13-0.05,0.25-0.08,0.38-0.11
	c0.26-0.05,0.52-0.05,0.78,0c0.13,0.03,0.25,0.06,0.37,0.11c0.13,0.05,0.24,0.12,0.35,0.19c0.11,0.07,0.21,0.15,0.3,0.25
	c0.1,0.09,0.18,0.19,0.25,0.3c0.07,0.11,0.14,0.22,0.19,0.34C57.9,46.86,57.94,46.98,57.96,47.11z M69.41,46.09
	C69.79,46.46,70,46.97,70,47.5c0,0.53-0.21,1.04-0.59,1.41c-0.37,0.38-0.88,0.59-1.41,0.59s-1.04-0.21-1.41-0.59
	C66.21,48.54,66,48.03,66,47.5c0-0.53,0.21-1.04,0.59-1.41C67.33,45.34,68.67,45.34,69.41,46.09z M81.96,47.11
	C81.99,47.24,82,47.37,82,47.5c0,0.13-0.01,0.26-0.04,0.39c-0.02,0.13-0.06,0.25-0.11,0.37c-0.05,0.13-0.12,0.24-0.19,0.35
	c-0.07,0.11-0.15,0.21-0.25,0.3c-0.09,0.1-0.19,0.18-0.3,0.25c-0.11,0.07-0.22,0.14-0.34,0.19c-0.13,0.05-0.25,0.09-0.38,0.11
	c-0.13,0.03-0.26,0.04-0.39,0.04c-0.53,0-1.04-0.21-1.41-0.59c-0.1-0.09-0.18-0.19-0.25-0.3s-0.14-0.22-0.19-0.35
	c-0.05-0.12-0.09-0.24-0.11-0.37C78.01,47.76,78,47.63,78,47.5c0-0.53,0.21-1.04,0.59-1.41c0.09-0.1,0.19-0.18,0.3-0.25
	c0.11-0.07,0.22-0.14,0.34-0.19c0.12-0.05,0.25-0.09,0.38-0.11c0.25-0.05,0.52-0.05,0.78,0c0.13,0.02,0.25,0.06,0.38,0.11
	c0.12,0.05,0.23,0.12,0.34,0.19c0.11,0.07,0.21,0.15,0.3,0.25c0.1,0.09,0.18,0.19,0.25,0.3c0.07,0.11,0.14,0.22,0.19,0.35
	C81.9,46.86,81.94,46.98,81.96,47.11z M33.96,57.11C33.99,57.24,34,57.37,34,57.5c0,0.53-0.21,1.04-0.58,1.41
	c-0.38,0.38-0.88,0.59-1.42,0.59s-1.04-0.21-1.41-0.59C30.21,58.54,30,58.03,30,57.5s0.21-1.04,0.59-1.41
	c0.09-0.1,0.19-0.18,0.3-0.25c0.11-0.08,0.22-0.14,0.35-0.19c0.12-0.05,0.24-0.09,0.37-0.11c0.26-0.05,0.52-0.05,0.78,0
	c0.13,0.02,0.26,0.06,0.38,0.11c0.12,0.05,0.23,0.11,0.34,0.19c0.11,0.07,0.21,0.15,0.31,0.25c0.09,0.09,0.17,0.19,0.24,0.3
	c0.08,0.11,0.14,0.22,0.19,0.34C33.9,56.85,33.94,56.98,33.96,57.11z M45.41,56.09C45.79,56.46,46,56.97,46,57.5
	s-0.21,1.04-0.59,1.41c-0.37,0.38-0.88,0.59-1.41,0.59c-0.53,0-1.04-0.21-1.41-0.59C42.21,58.54,42,58.03,42,57.5
	c0-0.13,0.01-0.26,0.04-0.39c0.03-0.13,0.06-0.26,0.11-0.38c0.05-0.12,0.12-0.23,0.19-0.34c0.07-0.11,0.15-0.21,0.25-0.3
	c0.09-0.1,0.19-0.18,0.3-0.25c0.11-0.08,0.22-0.14,0.34-0.19c0.13-0.05,0.25-0.09,0.38-0.11c0.26-0.05,0.52-0.05,0.78,0
	c0.13,0.02,0.25,0.06,0.38,0.11c0.12,0.05,0.23,0.11,0.34,0.19C45.22,55.91,45.32,55.99,45.41,56.09z M57.41,56.09
	C57.79,56.46,58,56.97,58,57.5s-0.21,1.04-0.59,1.41c-0.37,0.38-0.87,0.59-1.41,0.59s-1.04-0.21-1.41-0.59
	C54.21,58.54,54,58.03,54,57.5c0-0.13,0.01-0.26,0.04-0.39c0.02-0.13,0.06-0.26,0.11-0.38c0.05-0.12,0.11-0.23,0.19-0.34
	c0.07-0.11,0.15-0.21,0.25-0.3c0.09-0.1,0.19-0.18,0.3-0.25c0.11-0.08,0.22-0.14,0.34-0.19c0.12-0.05,0.25-0.09,0.38-0.11
	C56.26,55.41,56.95,55.62,57.41,56.09z M69.41,56.09C69.79,56.46,70,56.97,70,57.5c0,0.13-0.01,0.27-0.04,0.39
	c-0.02,0.13-0.06,0.26-0.11,0.38s-0.11,0.23-0.19,0.34c-0.07,0.11-0.15,0.21-0.25,0.3c-0.09,0.1-0.19,0.18-0.3,0.25
	c-0.11,0.08-0.23,0.14-0.34,0.19c-0.12,0.05-0.25,0.09-0.38,0.11c-0.13,0.03-0.26,0.04-0.39,0.04c-0.27,0-0.52-0.05-0.77-0.15
	c-0.24-0.1-0.46-0.25-0.64-0.44c-0.1-0.09-0.18-0.19-0.26-0.3c-0.07-0.11-0.13-0.22-0.18-0.34c-0.05-0.12-0.09-0.25-0.11-0.38
	C66.01,57.77,66,57.63,66,57.5s0.01-0.26,0.04-0.39c0.02-0.13,0.06-0.26,0.11-0.38c0.05-0.12,0.11-0.23,0.19-0.34
	c0.07-0.11,0.15-0.21,0.25-0.3c0.46-0.47,1.15-0.69,1.8-0.55c0.13,0.02,0.25,0.06,0.37,0.11c0.13,0.05,0.24,0.12,0.35,0.19
	C69.22,55.91,69.32,55.99,69.41,56.09z M81.41,56.09C81.79,56.46,82,56.97,82,57.5c0,0.13-0.01,0.26-0.04,0.39
	c-0.02,0.13-0.06,0.26-0.11,0.38s-0.11,0.23-0.19,0.34c-0.07,0.11-0.15,0.21-0.25,0.3c-0.09,0.1-0.19,0.18-0.3,0.25
	c-0.11,0.08-0.22,0.14-0.34,0.19s-0.25,0.09-0.38,0.11c-0.13,0.03-0.26,0.04-0.39,0.04c-0.27,0-0.52-0.05-0.77-0.15
	c-0.24-0.1-0.46-0.25-0.64-0.44c-0.1-0.09-0.18-0.19-0.25-0.3c-0.08-0.11-0.14-0.22-0.19-0.34c-0.05-0.12-0.09-0.25-0.11-0.38
	C78.01,57.76,78,57.63,78,57.5s0.01-0.26,0.04-0.39c0.02-0.13,0.06-0.26,0.11-0.38c0.05-0.12,0.12-0.23,0.19-0.34
	c0.07-0.11,0.15-0.21,0.25-0.3c0.46-0.47,1.15-0.68,1.8-0.55c0.13,0.02,0.25,0.06,0.38,0.11c0.12,0.05,0.23,0.12,0.34,0.19
	C81.22,55.91,81.32,55.99,81.41,56.09z M33.42,66.09C33.79,66.46,34,66.97,34,67.5s-0.21,1.04-0.58,1.41
	c-0.19,0.19-0.41,0.34-0.65,0.44c-0.25,0.1-0.5,0.15-0.77,0.15c-0.53,0-1.04-0.21-1.41-0.59C30.21,68.54,30,68.03,30,67.5
	s0.21-1.04,0.59-1.41C31.33,65.34,32.67,65.34,33.42,66.09z M45.41,66.09C45.79,66.46,46,66.97,46,67.5s-0.21,1.04-0.59,1.41
	c-0.37,0.38-0.87,0.59-1.41,0.59s-1.04-0.21-1.41-0.59C42.21,68.54,42,68.03,42,67.5s0.21-1.04,0.59-1.41
	c0.46-0.47,1.15-0.69,1.8-0.55c0.13,0.02,0.25,0.06,0.38,0.11c0.12,0.05,0.23,0.12,0.34,0.19S45.32,65.99,45.41,66.09z M57.41,66.09
	C57.79,66.46,58,66.97,58,67.5c0,0.27-0.05,0.52-0.15,0.77c-0.1,0.24-0.25,0.46-0.44,0.64c-0.09,0.1-0.19,0.18-0.3,0.25
	c-0.11,0.08-0.23,0.14-0.34,0.19c-0.12,0.05-0.25,0.09-0.38,0.11c-0.13,0.03-0.26,0.04-0.39,0.04c-0.27,0-0.52-0.05-0.77-0.15
	c-0.24-0.1-0.46-0.25-0.64-0.44C54.21,68.54,54,68.03,54,67.5s0.21-1.04,0.59-1.41c0.09-0.1,0.19-0.18,0.3-0.25
	c0.11-0.07,0.22-0.14,0.34-0.19c0.12-0.05,0.25-0.09,0.38-0.11C56.26,65.41,56.95,65.62,57.41,66.09z" fill="#ffffff" class="color000 svgShape"></path></svg></g></svg>