<svg id="SvgjsSvg1001" width="288" height="288" xmlns="http://www.w3.org/2000/svg" version="1.1" xmlns:xlink="http://www.w3.org/1999/xlink" xmlns:svgjs="http://svgjs.com/svgjs"><defs id="SvgjsDefs1002"></defs><g id="SvgjsG1008" transform="matrix(0.9167,0,0,0.9167,11.995200000000011,11.995200000000011)"><svg xmlns="http://www.w3.org/2000/svg" width="288" height="288" viewBox="0 0 24 24"><path fill="none" d="M0 0h24v24H0V0z"></path><path d="M19 13v5c0 .55-.45 1-1 1H6c-.55 0-1-.45-1-1v-5c0-.55-.45-1-1-1s-1 .45-1 1v6c0 1.1.9 2 2 2h14c1.1 0 2-.9 2-2v-6c0-.55-.45-1-1-1s-1 .45-1 1zm-6-.33l1.88-1.88c.39-.39 1.02-.39 1.41 0 .39.39.39 1.02 0 1.41l-3.59 3.59c-.39.39-1.02.39-1.41 0L7.7 12.2c-.39-.39-.39-1.02 0-1.41.39-.39 1.02-.39 1.41 0L11 12.67V4c0-.55.45-1 1-1s1 .45 1 1v8.67z" fill="#ffffff" class="color000 svgShape"></path></svg></g></svg>